<?xml version="1.0" standalone="no"?>
<!DOCTYPE svg PUBLIC "-//W3C//DTD SVG 20010904//EN"
 "http://www.w3.org/TR/2001/REC-SVG-20010904/DTD/svg10.dtd">
<svg version="1.0" xmlns="http://www.w3.org/2000/svg"
 width="260.000000pt" height="260.000000pt" viewBox="0 0 260.000000 260.000000"
 preserveAspectRatio="xMidYMid meet">
<metadata>
Created by potrace 1.14, written by Peter Selinger 2001-2017
</metadata>
<g transform="translate(0.000000,260.000000) scale(0.100000,-0.100000)"
fill="#000000" stroke="none">
<path d="M626 2543 c-4 -4 -24 -8 -46 -9 -21 -1 -56 -5 -77 -9 -21 -5 -41 -8
-45 -7 -5 1 -8 -3 -8 -9 0 -6 -7 -9 -15 -5 -8 3 -15 2 -15 -3 0 -7 -36 -22
-49 -20 -2 0 -7 -3 -10 -8 -3 -5 -22 -19 -41 -30 -54 -33 -174 -159 -165 -173
3 -5 -2 -15 -10 -23 -8 -9 -15 -22 -15 -29 0 -8 -5 -19 -12 -26 -7 -7 -9 -12
-6 -12 4 0 1 -15 -6 -32 -7 -18 -11 -39 -9 -45 3 -7 1 -13 -4 -13 -4 0 -8 -25
-8 -55 0 -40 -3 -54 -12 -51 -7 3 -15 1 -18 -5 -4 -5 -3 -9 2 -8 19 3 33 -2
33 -12 0 -5 -6 -7 -12 -3 -10 6 -10 4 -2 -7 6 -8 14 -29 16 -46 4 -28 2 -31
-11 -21 -9 7 -5 0 8 -14 15 -17 22 -34 18 -48 -3 -12 -1 -18 5 -14 6 4 9 1 6
-6 -2 -8 4 -22 15 -33 10 -10 17 -27 14 -37 -4 -14 -1 -17 12 -13 9 4 13 3 9
-2 -6 -7 49 -95 59 -95 2 0 1 5 -3 12 -4 7 -3 8 4 4 6 -4 8 -14 5 -23 -4 -9
-2 -14 3 -11 12 8 35 -17 26 -28 -4 -4 1 -4 11 -1 11 4 17 1 17 -9 0 -8 5 -12
10 -9 6 3 10 -2 10 -12 0 -14 2 -15 9 -5 7 11 9 10 15 -3 3 -9 11 -13 17 -9 8
4 9 3 5 -4 -4 -7 -1 -12 9 -12 15 0 25 -4 72 -28 13 -7 34 -12 48 -12 14 0 25
-4 25 -9 0 -15 223 -12 232 2 5 8 8 7 8 -3 0 -13 1 -13 10 0 8 12 13 13 29 3
17 -11 19 -10 15 2 -6 15 21 22 28 7 2 -4 16 -17 32 -30 16 -12 25 -22 21 -22
-4 0 4 -9 19 -21 14 -11 26 -27 26 -35 0 -8 7 -14 15 -14 9 0 18 -7 21 -15 4
-8 10 -13 14 -10 4 3 10 -4 13 -15 5 -21 -15 -44 -28 -32 -5 4 -5 2 -2 -4 3
-6 -25 -41 -63 -79 -39 -37 -70 -72 -70 -77 0 -5 -9 -4 -21 2 -11 7 -23 9 -26
6 -3 -3 -15 0 -27 6 -45 25 -286 13 -286 -14 0 -5 -5 -6 -11 -3 -12 8 -135
-51 -161 -78 -10 -9 -23 -17 -29 -17 -5 0 -7 -5 -3 -12 5 -7 2 -9 -8 -6 -10 4
-21 -6 -33 -29 -10 -19 -27 -39 -37 -44 -10 -6 -16 -14 -13 -18 2 -5 -2 -14
-10 -21 -8 -7 -12 -16 -9 -21 3 -5 0 -9 -6 -9 -11 0 -36 -58 -32 -73 1 -4 -2
-7 -6 -7 -5 0 -9 -6 -10 -12 0 -7 -4 -29 -8 -48 -4 -19 -8 -65 -8 -102 -1 -41
-5 -64 -11 -61 -5 3 -4 0 3 -8 17 -18 15 -32 -4 -25 -8 3 -12 2 -9 -4 3 -6 12
-10 19 -10 9 0 12 -9 8 -26 -3 -19 -1 -25 7 -20 14 9 15 -6 1 -22 -6 -6 -7
-10 -4 -8 3 3 12 0 19 -7 10 -9 9 -14 -4 -25 -9 -7 -10 -11 -3 -7 18 9 26 -22
11 -43 -13 -15 -12 -16 3 -4 14 11 19 10 32 -10 9 -12 16 -26 16 -30 0 -4 12
-19 26 -33 17 -17 23 -32 19 -45 -4 -12 -2 -20 5 -20 6 0 8 5 5 10 -14 23 12
8 35 -20 14 -16 30 -30 37 -30 7 0 13 -7 13 -16 0 -8 5 -12 10 -9 6 3 22 -2
38 -13 15 -11 44 -25 64 -32 21 -8 34 -18 31 -24 -3 -6 0 -6 7 1 13 12 46 1
62 -22 4 -6 8 -2 8 8 0 10 5 15 10 12 6 -4 7 -12 4 -18 -5 -8 -3 -8 7 1 15 14
33 16 25 4 -3 -5 8 -9 25 -10 16 0 27 3 25 7 -3 4 2 8 10 8 8 0 13 -6 10 -13
-3 -8 -1 -16 5 -19 5 -4 8 -1 7 7 -2 7 3 12 10 10 6 -1 12 2 12 7 0 5 8 8 18
6 9 -1 25 2 34 6 10 6 19 5 23 -1 3 -5 19 -1 37 10 17 10 38 16 46 12 9 -3 13
-1 9 5 -6 9 17 21 40 21 3 0 9 5 12 10 3 6 13 12 21 14 8 2 29 18 47 36 18 17
38 32 44 32 7 0 10 3 7 6 -3 3 4 15 16 28 35 37 56 66 56 76 0 6 5 10 10 10 6
0 9 3 8 7 -1 5 5 22 14 38 13 26 19 42 35 105 8 31 13 77 12 125 0 28 0 65 0
83 0 17 -4 32 -9 32 -4 0 -7 11 -5 25 1 14 -2 25 -7 25 -5 0 -6 5 -3 10 3 6 2
10 -4 10 -6 0 104 115 244 255 140 140 255 259 255 265 0 5 3 9 8 8 9 -4 118
105 115 114 -2 5 2 8 8 8 5 0 93 83 194 184 100 102 186 182 189 179 6 -6 10
12 7 30 0 4 4 7 10 7 12 0 322 310 342 342 8 13 13 35 12 50 -2 34 -31 78 -51
78 -8 0 -12 5 -9 10 6 9 -8 14 -27 11 -5 0 -8 6 -8 16 0 9 -3 14 -6 10 -4 -3
-19 0 -34 8 -15 8 -30 11 -34 8 -3 -4 -6 -2 -6 4 0 11 -4 12 -95 13 -58 1
-120 -11 -150 -29 -5 -3 -15 -6 -22 -7 -6 -1 -22 -11 -34 -23 -12 -11 -26 -18
-31 -15 -4 3 -8 -1 -8 -10 0 -8 -5 -16 -10 -18 -6 -2 -161 -153 -344 -337
l-334 -333 -91 91 c-86 85 -101 108 -84 125 4 3 8 16 10 29 2 12 6 36 8 52 5
32 6 112 2 160 -3 34 -35 134 -48 151 -5 6 -6 14 -2 17 3 4 1 7 -6 7 -7 0 -9
5 -6 10 3 6 1 10 -4 10 -6 0 -11 6 -11 13 0 6 -13 26 -30 43 -16 18 -26 35
-23 38 4 3 1 6 -5 6 -7 0 -31 18 -54 40 -24 22 -53 43 -65 46 -13 4 -23 10
-23 14 0 4 -8 10 -17 13 -10 4 -36 13 -58 22 -22 8 -58 18 -80 21 -22 4 -45
10 -50 15 -6 4 -17 4 -25 -1 -9 -5 -17 -5 -20 1 -4 5 -10 6 -14 2z m18 -334
c39 5 66 -1 66 -15 0 -13 3 -14 14 -5 11 9 16 9 22 0 5 -8 3 -9 -6 -4 -9 5
-11 4 -6 -4 4 -6 12 -9 17 -6 10 7 75 -64 72 -77 -2 -4 2 -8 7 -8 6 0 10 -5
10 -11 0 -5 -4 -7 -10 -4 -6 3 -7 -1 -4 -9 3 -9 10 -16 15 -16 5 0 9 -25 9
-55 0 -37 -4 -55 -12 -55 -9 0 -8 -4 2 -10 12 -7 12 -10 1 -10 -8 0 -11 -6 -7
-16 3 -8 2 -12 -4 -9 -6 3 -10 1 -10 -5 0 -6 -5 -8 -12 -4 -10 6 -10 5 -1 -7
10 -12 7 -19 -19 -39 -17 -14 -39 -34 -51 -45 -11 -11 -16 -13 -12 -5 8 13 6
13 -8 2 -27 -22 -111 -26 -167 -7 -27 9 -50 21 -50 26 0 5 -7 9 -15 9 -8 0
-15 5 -15 11 0 7 -12 23 -27 37 -16 13 -21 21 -13 16 12 -6 12 -4 -1 12 -17
20 -20 30 -20 97 -1 44 1 56 18 97 15 37 74 100 86 93 6 -3 16 2 24 12 9 14
13 15 13 4 1 -10 3 -9 11 4 7 11 18 16 35 13 14 -3 24 0 24 7 0 8 3 8 9 -1 4
-8 11 -13 15 -13z m-60 -1391 c-6 -10 -5 -10 7 -2 15 13 72 16 64 4 -2 -3 2
-7 10 -7 8 0 12 4 9 9 -3 4 0 8 5 8 6 0 11 -4 11 -10 0 -5 9 -10 20 -10 11 0
20 -4 20 -10 0 -5 9 -10 21 -10 11 0 17 -4 14 -10 -3 -5 -1 -10 5 -10 6 0 20
-9 32 -20 12 -11 18 -20 14 -20 -4 0 0 -10 8 -21 8 -12 12 -28 9 -37 -5 -10
-2 -13 6 -8 9 6 12 1 11 -15 -1 -13 -1 -28 0 -34 4 -21 -2 -70 -11 -81 -5 -6
-6 -14 -2 -17 3 -4 1 -7 -5 -7 -7 0 -11 -3 -11 -7 3 -18 -1 -36 -7 -30 -7 7
-34 -15 -28 -24 2 -4 -13 -18 -34 -32 -37 -25 -162 -53 -162 -35 0 4 -8 8 -18
8 -32 0 -80 30 -117 72 -19 23 -33 44 -30 46 3 3 0 11 -7 19 -14 17 -19 133
-6 133 5 0 6 5 3 10 -12 19 81 134 102 126 7 -3 13 -1 13 5 0 6 7 8 16 5 8 -3
12 -2 9 3 -3 5 3 12 12 14 10 3 19 5 21 6 2 0 0 -5 -4 -11z"/>
<path d="M575 2200 c3 -5 8 -10 11 -10 2 0 4 5 4 10 0 6 -5 10 -11 10 -5 0 -7
-4 -4 -10z"/>
<path d="M655 2180 c3 -5 8 -10 11 -10 2 0 4 5 4 10 0 6 -5 10 -11 10 -5 0 -7
-4 -4 -10z"/>
<path d="M495 2169 c-4 -6 -5 -12 -2 -15 2 -3 7 2 10 11 7 17 1 20 -8 4z"/>
<path d="M774 2122 c4 -3 14 -7 22 -8 9 -1 13 0 10 4 -4 3 -14 7 -22 8 -9 1
-13 0 -10 -4z"/>
<path d="M745 740 c-3 -6 1 -7 9 -4 18 7 21 14 7 14 -6 0 -13 -4 -16 -10z"/>
<path d="M788 733 c7 -3 16 -2 19 1 4 3 -2 6 -13 5 -11 0 -14 -3 -6 -6z"/>
<path d="M56 2013 c-6 -14 -5 -15 5 -6 7 7 10 15 7 18 -3 3 -9 -2 -12 -12z"/>
<path d="M93 1745 c0 -8 4 -12 9 -9 5 3 6 10 3 15 -9 13 -12 11 -12 -6z"/>
<path d="M146 1678 c3 -5 10 -6 15 -3 13 9 11 12 -6 12 -8 0 -12 -4 -9 -9z"/>
<path d="M570 1426 c0 -2 7 -7 16 -10 8 -3 12 -2 9 4 -6 10 -25 14 -25 6z"/>
<path d="M656 1413 c-6 -14 -5 -15 5 -6 7 7 10 15 7 18 -3 3 -9 -2 -12 -12z"/>
<path d="M853 1415 c0 -8 4 -12 9 -9 5 3 6 10 3 15 -9 13 -12 11 -12 -6z"/>
<path d="M890 1365 c0 -5 5 -17 10 -25 5 -8 10 -10 10 -5 0 6 -5 17 -10 25 -5
8 -10 11 -10 5z"/>
<path d="M935 1300 c-3 -5 -1 -10 4 -10 6 0 11 5 11 10 0 6 -2 10 -4 10 -3 0
-8 -4 -11 -10z"/>
<path d="M1719 1177 c-13 -12 -27 -21 -31 -19 -5 1 -7 -4 -5 -10 1 -7 -5 -11
-13 -10 -8 2 -12 0 -8 -4 11 -10 -12 -35 -26 -27 -6 3 -8 3 -4 -1 7 -9 -53
-72 -65 -68 -5 1 -7 -1 -4 -5 2 -5 -10 -21 -26 -38 -17 -16 -27 -24 -22 -16 5
10 4 12 -4 7 -6 -4 -9 -11 -6 -16 6 -9 -19 -32 -28 -25 -4 3 -5 2 -3 -1 5 -7
-36 -50 -45 -47 -3 1 -6 -5 -6 -13 0 -7 7 -14 15 -14 12 0 12 -3 2 -15 -11
-13 -10 -14 5 -9 13 5 16 4 11 -4 -4 -7 -1 -12 9 -12 8 0 20 -10 25 -22 5 -14
9 -17 10 -8 0 13 2 13 9 0 6 -8 7 -18 5 -22 -3 -5 0 -7 8 -6 7 2 12 -3 10 -10
-1 -8 2 -11 8 -7 5 3 13 -1 16 -9 3 -9 13 -16 22 -16 12 0 13 -3 4 -12 -7 -7
-12 -17 -12 -22 0 -6 4 -5 9 2 7 11 11 11 23 -2 9 -8 18 -12 22 -9 3 4 6 -1 6
-10 0 -8 9 -18 20 -22 20 -6 23 -24 5 -38 -5 -4 1 -6 14 -5 17 2 28 -4 37 -20
6 -13 13 -22 15 -20 8 6 69 -56 69 -69 0 -8 4 -12 8 -9 12 7 104 -92 97 -104
-3 -6 1 -7 10 -4 11 5 18 0 22 -16 4 -16 8 -18 14 -8 7 10 9 9 9 -5 0 -10 5
-15 10 -12 6 3 10 -3 10 -15 0 -12 5 -18 10 -15 6 3 10 -1 10 -9 0 -9 6 -15
13 -13 6 1 11 -5 11 -14 -1 -11 5 -15 17 -12 11 3 19 0 19 -6 0 -7 5 -9 12 -5
8 5 9 2 5 -10 -5 -14 -3 -15 13 -6 14 8 21 6 28 -6 5 -9 12 -15 16 -14 15 4
66 -12 62 -19 -3 -4 1 -8 9 -8 8 0 12 4 9 9 -6 10 10 11 20 1 9 -10 37 -13 31
-4 -2 5 9 8 26 9 18 0 27 -3 23 -10 -4 -5 5 -2 20 7 14 10 26 14 26 10 0 -4 7
-2 15 5 8 6 20 8 26 4 7 -4 9 -3 6 3 -4 6 0 14 9 17 10 4 13 2 8 -7 -8 -14 13
5 72 63 33 33 40 47 38 73 -1 17 -3 34 -4 37 -1 3 -2 7 -3 10 0 3 -174 179
-388 392 l-387 386 -23 -21z"/>
<path d="M1456 782 c-3 -5 1 -9 9 -9 8 0 12 4 9 9 -3 4 -7 8 -9 8 -2 0 -6 -4
-9 -8z"/>
<path d="M1535 700 c3 -5 8 -10 11 -10 2 0 4 5 4 10 0 6 -5 10 -11 10 -5 0 -7
-4 -4 -10z"/>
<path d="M56 627 c3 -10 9 -15 12 -12 3 3 0 11 -7 18 -10 9 -11 8 -5 -6z"/>
<path d="M1780 460 c8 -5 20 -10 25 -10 6 0 3 5 -5 10 -8 5 -19 10 -25 10 -5
0 -3 -5 5 -10z"/>
<path d="M1815 420 c3 -5 8 -10 11 -10 2 0 4 5 4 10 0 6 -5 10 -11 10 -5 0 -7
-4 -4 -10z"/>
<path d="M156 262 c-3 -5 1 -9 9 -9 8 0 12 4 9 9 -3 4 -7 8 -9 8 -2 0 -6 -4
-9 -8z"/>
<path d="M2035 229 c-4 -6 -5 -12 -2 -15 2 -3 7 2 10 11 7 17 1 20 -8 4z"/>
<path d="M175 220 c-3 -5 -1 -10 4 -10 6 0 11 5 11 10 0 6 -2 10 -4 10 -3 0
-8 -4 -11 -10z"/>
<path d="M215 180 c3 -5 8 -10 11 -10 2 0 4 5 4 10 0 6 -5 10 -11 10 -5 0 -7
-4 -4 -10z"/>
<path d="M250 165 c0 -5 5 -17 10 -25 5 -8 10 -10 10 -5 0 6 -5 17 -10 25 -5
8 -10 11 -10 5z"/>
<path d="M2196 158 c3 -5 10 -6 15 -3 13 9 11 12 -6 12 -8 0 -12 -4 -9 -9z"/>
<path d="M355 111 c-3 -5 -2 -12 3 -15 5 -3 9 1 9 9 0 17 -3 19 -12 6z"/>
<path d="M495 40 c-3 -5 -1 -10 4 -10 6 0 11 5 11 10 0 6 -2 10 -4 10 -3 0 -8
-4 -11 -10z"/>
<path d="M690 46 c0 -2 7 -7 16 -10 8 -3 12 -2 9 4 -6 10 -25 14 -25 6z"/>
</g>
</svg>
